<?xml version="1.0" encoding="UTF-8" ?>
<svg version="1.1" width="128" height="128" xmlns="http://www.w3.org/2000/svg" shape-rendering="crispEdges">
<rect x="0" y="0" width="128" height="12" fill="#084258" />
<rect x="0" y="12" width="35" height="1" fill="#084258" />
<rect x="35" y="12" width="93" height="1" fill="#100F17" />
<rect x="0" y="13" width="29" height="1" fill="#084258" />
<rect x="29" y="13" width="7" height="1" fill="#100F17" />
<rect x="36" y="13" width="92" height="2" fill="#28272D" />
<rect x="0" y="14" width="25" height="1" fill="#084258" />
<rect x="25" y="14" width="5" height="1" fill="#100F17" />
<rect x="30" y="14" width="6" height="4" fill="#28272D" />
<rect x="0" y="15" width="23" height="1" fill="#084258" />
<rect x="23" y="15" width="3" height="1" fill="#100F17" />
<rect x="26" y="15" width="4" height="3" fill="#28272D" />
<rect x="36" y="15" width="5" height="9" fill="#28272D" />
<rect x="41" y="15" width="9" height="1" fill="#100F17" />
<rect x="50" y="15" width="21" height="6" fill="#28272D" />
<rect x="71" y="15" width="57" height="1" fill="#100F17" />
<rect x="0" y="16" width="21" height="1" fill="#084258" />
<rect x="21" y="16" width="3" height="1" fill="#100F17" />
<rect x="24" y="16" width="2" height="8" fill="#28272D" />
<rect x="41" y="16" width="1" height="3" fill="#100F17" />
<rect x="42" y="16" width="7" height="2" fill="#797E82" />
<rect x="49" y="16" width="1" height="3" fill="#100F17" />
<rect x="71" y="16" width="1" height="96" fill="#100F17" />
<rect x="72" y="16" width="56" height="95" fill="#0E0E0E" />
<rect x="0" y="17" width="20" height="1" fill="#084258" />
<rect x="20" y="17" width="2" height="1" fill="#100F17" />
<rect x="22" y="17" width="2" height="7" fill="#28272D" />
<rect x="0" y="18" width="19" height="2" fill="#084258" />
<rect x="19" y="18" width="2" height="1" fill="#100F17" />
<rect x="21" y="18" width="1" height="6" fill="#28272D" />
<rect x="26" y="18" width="8" height="1" fill="#100F17" />
<rect x="34" y="18" width="2" height="6" fill="#28272D" />
<rect x="42" y="18" width="7" height="1" fill="#100F17" />
<rect x="19" y="19" width="1" height="2" fill="#100F17" />
<rect x="20" y="19" width="1" height="5" fill="#28272D" />
<rect x="26" y="19" width="1" height="6" fill="#100F17" />
<rect x="27" y="19" width="6" height="18" fill="#10100E" />
<rect x="33" y="19" width="1" height="6" fill="#100F17" />
<rect x="41" y="19" width="9" height="4" fill="#28272D" />
<rect x="0" y="20" width="18" height="3" fill="#084258" />
<rect x="18" y="20" width="1" height="4" fill="#100F17" />
<rect x="19" y="21" width="1" height="26" fill="#28272D" />
<rect x="50" y="21" width="2" height="1" fill="#28272D" />
<rect x="52" y="21" width="8" height="1" fill="#100F17" />
<rect x="60" y="21" width="11" height="1" fill="#28272D" />
<rect x="50" y="22" width="3" height="1" fill="#100F17" />
<rect x="53" y="22" width="6" height="2" fill="#222126" />
<rect x="59" y="22" width="3" height="1" fill="#100F17" />
<rect x="62" y="22" width="9" height="1" fill="#28272D" />
<rect x="0" y="23" width="17" height="4" fill="#084258" />
<rect x="17" y="23" width="1" height="5" fill="#100F17" />
<rect x="41" y="23" width="8" height="1" fill="#28272D" />
<rect x="49" y="23" width="2" height="1" fill="#100F17" />
<rect x="51" y="23" width="2" height="2" fill="#222126" />
<rect x="59" y="23" width="2" height="2" fill="#222126" />
<rect x="61" y="23" width="2" height="1" fill="#100F17" />
<rect x="63" y="23" width="8" height="1" fill="#28272D" />
<rect x="18" y="24" width="1" height="23" fill="#28272D" />
<rect x="20" y="24" width="6" height="1" fill="#100F17" />
<rect x="34" y="24" width="6" height="1" fill="#100F17" />
<rect x="40" y="24" width="8" height="1" fill="#28272D" />
<rect x="48" y="24" width="2" height="1" fill="#100F17" />
<rect x="50" y="24" width="1" height="2" fill="#222126" />
<rect x="53" y="24" width="6" height="1" fill="#100F17" />
<rect x="61" y="24" width="1" height="2" fill="#222126" />
<rect x="62" y="24" width="2" height="1" fill="#100F17" />
<rect x="64" y="24" width="7" height="1" fill="#28272D" />
<rect x="20" y="25" width="1" height="7" fill="#100F17" />
<rect x="21" y="25" width="6" height="6" fill="#10100E" />
<rect x="33" y="25" width="6" height="6" fill="#10100E" />
<rect x="39" y="25" width="1" height="7" fill="#100F17" />
<rect x="40" y="25" width="7" height="1" fill="#28272D" />
<rect x="47" y="25" width="2" height="1" fill="#100F17" />
<rect x="49" y="25" width="1" height="2" fill="#222126" />
<rect x="51" y="25" width="3" height="1" fill="#100F17" />
<rect x="54" y="25" width="4" height="13" fill="#434449" />
<rect x="58" y="25" width="3" height="1" fill="#100F17" />
<rect x="62" y="25" width="1" height="2" fill="#222126" />
<rect x="63" y="25" width="2" height="1" fill="#100F17" />
<rect x="65" y="25" width="6" height="1" fill="#28272D" />
<rect x="40" y="26" width="6" height="1" fill="#28272D" />
<rect x="46" y="26" width="2" height="1" fill="#100F17" />
<rect x="48" y="26" width="1" height="2" fill="#222126" />
<rect x="50" y="26" width="2" height="1" fill="#100F17" />
<rect x="52" y="26" width="2" height="11" fill="#434449" />
<rect x="58" y="26" width="2" height="11" fill="#434449" />
<rect x="60" y="26" width="2" height="1" fill="#100F17" />
<rect x="63" y="26" width="1" height="2" fill="#222126" />
<rect x="64" y="26" width="2" height="1" fill="#100F17" />
<rect x="66" y="26" width="5" height="1" fill="#28272D" />
<rect x="0" y="27" width="16" height="101" fill="#084258" />
<rect x="16" y="27" width="1" height="62" fill="#100F17" />
<rect x="40" y="27" width="5" height="20" fill="#28272D" />
<rect x="45" y="27" width="2" height="1" fill="#100F17" />
<rect x="47" y="27" width="1" height="9" fill="#222126" />
<rect x="49" y="27" width="2" height="1" fill="#100F17" />
<rect x="51" y="27" width="1" height="9" fill="#434449" />
<rect x="60" y="27" width="1" height="9" fill="#434449" />
<rect x="61" y="27" width="2" height="1" fill="#100F17" />
<rect x="64" y="27" width="1" height="9" fill="#222126" />
<rect x="65" y="27" width="2" height="1" fill="#100F17" />
<rect x="67" y="27" width="4" height="22" fill="#28272D" />
<rect x="17" y="28" width="1" height="19" fill="#28272D" />
<rect x="45" y="28" width="1" height="8" fill="#100F17" />
<rect x="46" y="28" width="1" height="7" fill="#222126" />
<rect x="48" y="28" width="2" height="1" fill="#100F17" />
<rect x="50" y="28" width="1" height="7" fill="#434449" />
<rect x="61" y="28" width="1" height="7" fill="#434449" />
<rect x="62" y="28" width="2" height="1" fill="#100F17" />
<rect x="65" y="28" width="1" height="7" fill="#222126" />
<rect x="66" y="28" width="1" height="8" fill="#100F17" />
<rect x="48" y="29" width="1" height="6" fill="#100F17" />
<rect x="49" y="29" width="1" height="5" fill="#434449" />
<rect x="62" y="29" width="1" height="5" fill="#434449" />
<rect x="63" y="29" width="1" height="6" fill="#100F17" />
<rect x="21" y="31" width="5" height="1" fill="#100F17" />
<rect x="26" y="31" width="1" height="6" fill="#10100E" />
<rect x="33" y="31" width="6" height="1" fill="#100F17" />
<rect x="20" y="32" width="6" height="15" fill="#28272D" />
<rect x="33" y="32" width="1" height="6" fill="#100F17" />
<rect x="34" y="32" width="6" height="16" fill="#28272D" />
<rect x="49" y="34" width="1" height="1" fill="#100F17" />
<rect x="62" y="34" width="1" height="1" fill="#100F17" />
<rect x="46" y="35" width="1" height="1" fill="#0E0E0E" />
<rect x="48" y="35" width="1" height="2" fill="#222126" />
<rect x="49" y="35" width="1" height="1" fill="#0E0E0E" />
<rect x="50" y="35" width="1" height="1" fill="#100F17" />
<rect x="61" y="35" width="1" height="1" fill="#100F17" />
<rect x="62" y="35" width="1" height="1" fill="#0E0E0E" />
<rect x="63" y="35" width="1" height="2" fill="#222126" />
<rect x="65" y="35" width="1" height="2" fill="#0E0E0E" />
<rect x="45" y="36" width="1" height="11" fill="#28272D" />
<rect x="46" y="36" width="1" height="1" fill="#100F17" />
<rect x="47" y="36" width="1" height="1" fill="#0E0E0E" />
<rect x="49" y="36" width="1" height="2" fill="#222126" />
<rect x="50" y="36" width="1" height="1" fill="#0E0E0E" />
<rect x="51" y="36" width="1" height="1" fill="#100F17" />
<rect x="60" y="36" width="1" height="1" fill="#100F17" />
<rect x="61" y="36" width="1" height="1" fill="#0E0E0E" />
<rect x="62" y="36" width="1" height="2" fill="#222126" />
<rect x="64" y="36" width="1" height="2" fill="#0E0E0E" />
<rect x="66" y="36" width="1" height="12" fill="#28272D" />
<rect x="26" y="37" width="7" height="1" fill="#100F17" />
<rect x="46" y="37" width="1" height="10" fill="#28272D" />
<rect x="47" y="37" width="1" height="1" fill="#100F17" />
<rect x="48" y="37" width="1" height="1" fill="#0E0E0E" />
<rect x="50" y="37" width="1" height="2" fill="#222126" />
<rect x="51" y="37" width="1" height="1" fill="#0E0E0E" />
<rect x="52" y="37" width="2" height="1" fill="#100F17" />
<rect x="58" y="37" width="2" height="1" fill="#100F17" />
<rect x="60" y="37" width="1" height="1" fill="#0E0E0E" />
<rect x="61" y="37" width="1" height="2" fill="#222126" />
<rect x="63" y="37" width="1" height="2" fill="#0E0E0E" />
<rect x="65" y="37" width="1" height="10" fill="#28272D" />
<rect x="26" y="38" width="8" height="9" fill="#28272D" />
<rect x="47" y="38" width="1" height="9" fill="#28272D" />
<rect x="48" y="38" width="1" height="1" fill="#100F17" />
<rect x="49" y="38" width="1" height="1" fill="#0E0E0E" />
<rect x="51" y="38" width="2" height="2" fill="#222126" />
<rect x="53" y="38" width="6" height="1" fill="#100F17" />
<rect x="59" y="38" width="2" height="2" fill="#222126" />
<rect x="62" y="38" width="1" height="2" fill="#0E0E0E" />
<rect x="64" y="38" width="1" height="9" fill="#28272D" />
<rect x="48" y="39" width="1" height="8" fill="#28272D" />
<rect x="49" y="39" width="1" height="1" fill="#100F17" />
<rect x="50" y="39" width="1" height="1" fill="#0E0E0E" />
<rect x="53" y="39" width="6" height="2" fill="#222126" />
<rect x="61" y="39" width="1" height="2" fill="#0E0E0E" />
<rect x="63" y="39" width="1" height="8" fill="#28272D" />
<rect x="49" y="40" width="1" height="7" fill="#28272D" />
<rect x="50" y="40" width="1" height="1" fill="#100F17" />
<rect x="51" y="40" width="1" height="1" fill="#0E0E0E" />
<rect x="52" y="40" width="1" height="1" fill="#100F17" />
<rect x="59" y="40" width="1" height="1" fill="#100F17" />
<rect x="60" y="40" width="1" height="1" fill="#0E0E0E" />
<rect x="62" y="40" width="1" height="7" fill="#28272D" />
<rect x="50" y="41" width="2" height="6" fill="#28272D" />
<rect x="52" y="41" width="8" height="1" fill="#0E0E0E" />
<rect x="60" y="41" width="2" height="6" fill="#28272D" />
<rect x="52" y="42" width="8" height="5" fill="#28272D" />
<rect x="17" y="47" width="10" height="1" fill="#100F17" />
<rect x="27" y="47" width="7" height="1" fill="#28272D" />
<rect x="40" y="47" width="26" height="1" fill="#100F17" />
<rect x="17" y="48" width="9" height="40" fill="#28272D" />
<rect x="26" y="48" width="3" height="1" fill="#100F17" />
<rect x="29" y="48" width="10" height="1" fill="#28272D" />
<rect x="39" y="48" width="2" height="1" fill="#100F17" />
<rect x="41" y="48" width="24" height="28" fill="#28272D" />
<rect x="65" y="48" width="2" height="1" fill="#100F17" />
<rect x="26" y="49" width="2" height="60" fill="#28272D" />
<rect x="28" y="49" width="1" height="2" fill="#100F17" />
<rect x="29" y="49" width="9" height="1" fill="#28272D" />
<rect x="38" y="49" width="2" height="1" fill="#100F17" />
<rect x="40" y="49" width="1" height="26" fill="#28272D" />
<rect x="65" y="49" width="1" height="26" fill="#28272D" />
<rect x="66" y="49" width="2" height="1" fill="#100F17" />
<rect x="68" y="49" width="3" height="35" fill="#28272D" />
<rect x="29" y="50" width="1" height="28" fill="#100F17" />
<rect x="30" y="50" width="8" height="27" fill="#28272D" />
<rect x="38" y="50" width="1" height="25" fill="#100F17" />
<rect x="39" y="50" width="1" height="24" fill="#28272D" />
<rect x="66" y="50" width="1" height="24" fill="#28272D" />
<rect x="67" y="50" width="1" height="25" fill="#100F17" />
<rect x="28" y="51" width="1" height="60" fill="#28272D" />
<rect x="39" y="74" width="1" height="2" fill="#100F17" />
<rect x="66" y="74" width="1" height="2" fill="#100F17" />
<rect x="38" y="75" width="1" height="14" fill="#28272D" />
<rect x="40" y="75" width="1" height="2" fill="#100F17" />
<rect x="65" y="75" width="1" height="2" fill="#100F17" />
<rect x="67" y="75" width="1" height="8" fill="#28272D" />
<rect x="39" y="76" width="1" height="14" fill="#28272D" />
<rect x="41" y="76" width="24" height="1" fill="#100F17" />
<rect x="66" y="76" width="1" height="6" fill="#28272D" />
<rect x="30" y="77" width="1" height="3" fill="#100F17" />
<rect x="31" y="77" width="7" height="2" fill="#28272D" />
<rect x="40" y="77" width="26" height="5" fill="#28272D" />
<rect x="29" y="78" width="1" height="33" fill="#28272D" />
<rect x="31" y="79" width="1" height="2" fill="#100F17" />
<rect x="32" y="79" width="6" height="1" fill="#28272D" />
<rect x="30" y="80" width="1" height="32" fill="#28272D" />
<rect x="32" y="80" width="1" height="3" fill="#100F17" />
<rect x="33" y="80" width="5" height="2" fill="#28272D" />
<rect x="31" y="81" width="1" height="31" fill="#28272D" />
<rect x="33" y="82" width="1" height="2" fill="#100F17" />
<rect x="34" y="82" width="4" height="1" fill="#28272D" />
<rect x="40" y="82" width="14" height="1" fill="#28272D" />
<rect x="54" y="82" width="13" height="1" fill="#100F17" />
<rect x="32" y="83" width="1" height="30" fill="#28272D" />
<rect x="34" y="83" width="1" height="3" fill="#100F17" />
<rect x="35" y="83" width="3" height="2" fill="#28272D" />
<rect x="40" y="83" width="13" height="1" fill="#28272D" />
<rect x="53" y="83" width="1" height="1" fill="#100F17" />
<rect x="54" y="83" width="13" height="4" fill="#222126" />
<rect x="67" y="83" width="1" height="1" fill="#100F17" />
<rect x="33" y="84" width="1" height="29" fill="#28272D" />
<rect x="40" y="84" width="12" height="7" fill="#28272D" />
<rect x="52" y="84" width="1" height="2" fill="#100F17" />
<rect x="53" y="84" width="1" height="2" fill="#222126" />
<rect x="67" y="84" width="1" height="2" fill="#222126" />
<rect x="68" y="84" width="1" height="2" fill="#100F17" />
<rect x="69" y="84" width="2" height="31" fill="#28272D" />
<rect x="35" y="85" width="1" height="2" fill="#100F17" />
<rect x="36" y="85" width="2" height="1" fill="#28272D" />
<rect x="34" y="86" width="1" height="27" fill="#28272D" />
<rect x="36" y="86" width="1" height="3" fill="#100F17" />
<rect x="37" y="86" width="1" height="2" fill="#28272D" />
<rect x="52" y="86" width="1" height="7" fill="#28272D" />
<rect x="53" y="86" width="1" height="1" fill="#100F17" />
<rect x="67" y="86" width="1" height="1" fill="#100F17" />
<rect x="68" y="86" width="1" height="7" fill="#28272D" />
<rect x="35" y="87" width="1" height="27" fill="#28272D" />
<rect x="53" y="87" width="1" height="6" fill="#28272D" />
<rect x="54" y="87" width="13" height="1" fill="#100F17" />
<rect x="67" y="87" width="1" height="6" fill="#28272D" />
<rect x="17" y="88" width="1" height="7" fill="#100F17" />
<rect x="18" y="88" width="8" height="6" fill="#28272D" />
<rect x="37" y="88" width="1" height="2" fill="#100F17" />
<rect x="54" y="88" width="13" height="5" fill="#28272D" />
<rect x="16" y="89" width="1" height="39" fill="#084258" />
<rect x="36" y="89" width="1" height="25" fill="#28272D" />
<rect x="38" y="89" width="1" height="2" fill="#100F17" />
<rect x="37" y="90" width="1" height="25" fill="#28272D" />
<rect x="39" y="90" width="1" height="2" fill="#100F17" />
<rect x="38" y="91" width="1" height="24" fill="#28272D" />
<rect x="40" y="91" width="1" height="3" fill="#100F17" />
<rect x="41" y="91" width="11" height="2" fill="#28272D" />
<rect x="39" y="92" width="1" height="23" fill="#28272D" />
<rect x="41" y="93" width="1" height="2" fill="#100F17" />
<rect x="42" y="93" width="10" height="1" fill="#28272D" />
<rect x="52" y="93" width="4" height="2" fill="#100F17" />
<rect x="56" y="93" width="1" height="3" fill="#28272D" />
<rect x="57" y="93" width="3" height="2" fill="#100F17" />
<rect x="60" y="93" width="1" height="3" fill="#28272D" />
<rect x="61" y="93" width="3" height="2" fill="#100F17" />
<rect x="64" y="93" width="1" height="3" fill="#28272D" />
<rect x="65" y="93" width="4" height="2" fill="#100F17" />
<rect x="18" y="94" width="1" height="5" fill="#100F17" />
<rect x="19" y="94" width="7" height="4" fill="#28272D" />
<rect x="40" y="94" width="1" height="21" fill="#28272D" />
<rect x="42" y="94" width="1" height="3" fill="#100F17" />
<rect x="43" y="94" width="9" height="2" fill="#28272D" />
<rect x="17" y="95" width="1" height="33" fill="#084258" />
<rect x="41" y="95" width="1" height="20" fill="#28272D" />
<rect x="52" y="95" width="4" height="1" fill="#28272D" />
<rect x="57" y="95" width="3" height="1" fill="#28272D" />
<rect x="61" y="95" width="3" height="1" fill="#28272D" />
<rect x="65" y="95" width="4" height="1" fill="#28272D" />
<rect x="43" y="96" width="1" height="2" fill="#100F17" />
<rect x="44" y="96" width="10" height="1" fill="#28272D" />
<rect x="54" y="96" width="4" height="2" fill="#100F17" />
<rect x="58" y="96" width="1" height="3" fill="#28272D" />
<rect x="59" y="96" width="3" height="2" fill="#100F17" />
<rect x="62" y="96" width="1" height="3" fill="#28272D" />
<rect x="63" y="96" width="4" height="2" fill="#100F17" />
<rect x="67" y="96" width="2" height="19" fill="#28272D" />
<rect x="42" y="97" width="1" height="18" fill="#28272D" />
<rect x="44" y="97" width="1" height="2" fill="#100F17" />
<rect x="45" y="97" width="9" height="1" fill="#28272D" />
<rect x="19" y="98" width="1" height="4" fill="#100F17" />
<rect x="20" y="98" width="6" height="3" fill="#28272D" />
<rect x="43" y="98" width="1" height="17" fill="#28272D" />
<rect x="45" y="98" width="1" height="3" fill="#100F17" />
<rect x="46" y="98" width="12" height="1" fill="#28272D" />
<rect x="59" y="98" width="3" height="1" fill="#28272D" />
<rect x="63" y="98" width="4" height="1" fill="#28272D" />
<rect x="18" y="99" width="1" height="29" fill="#084258" />
<rect x="44" y="99" width="1" height="16" fill="#28272D" />
<rect x="46" y="99" width="10" height="1" fill="#28272D" />
<rect x="56" y="99" width="4" height="2" fill="#100F17" />
<rect x="60" y="99" width="1" height="13" fill="#28272D" />
<rect x="61" y="99" width="4" height="2" fill="#100F17" />
<rect x="65" y="99" width="2" height="16" fill="#28272D" />
<rect x="46" y="100" width="1" height="2" fill="#100F17" />
<rect x="47" y="100" width="9" height="1" fill="#28272D" />
<rect x="20" y="101" width="1" height="3" fill="#100F17" />
<rect x="21" y="101" width="5" height="2" fill="#28272D" />
<rect x="45" y="101" width="1" height="14" fill="#28272D" />
<rect x="47" y="101" width="1" height="3" fill="#100F17" />
<rect x="48" y="101" width="12" height="2" fill="#28272D" />
<rect x="61" y="101" width="4" height="11" fill="#28272D" />
<rect x="19" y="102" width="1" height="26" fill="#084258" />
<rect x="46" y="102" width="1" height="13" fill="#28272D" />
<rect x="21" y="103" width="1" height="2" fill="#100F17" />
<rect x="22" y="103" width="4" height="1" fill="#28272D" />
<rect x="48" y="103" width="1" height="2" fill="#100F17" />
<rect x="49" y="103" width="11" height="1" fill="#28272D" />
<rect x="20" y="104" width="1" height="24" fill="#084258" />
<rect x="22" y="104" width="1" height="3" fill="#100F17" />
<rect x="23" y="104" width="3" height="2" fill="#28272D" />
<rect x="47" y="104" width="1" height="11" fill="#28272D" />
<rect x="49" y="104" width="1" height="2" fill="#100F17" />
<rect x="50" y="104" width="10" height="1" fill="#28272D" />
<rect x="21" y="105" width="1" height="23" fill="#084258" />
<rect x="48" y="105" width="1" height="10" fill="#28272D" />
<rect x="50" y="105" width="1" height="3" fill="#100F17" />
<rect x="51" y="105" width="9" height="2" fill="#28272D" />
<rect x="23" y="106" width="1" height="2" fill="#100F17" />
<rect x="24" y="106" width="2" height="1" fill="#28272D" />
<rect x="49" y="106" width="1" height="9" fill="#28272D" />
<rect x="22" y="107" width="1" height="21" fill="#084258" />
<rect x="24" y="107" width="1" height="2" fill="#100F17" />
<rect x="25" y="107" width="1" height="1" fill="#28272D" />
<rect x="51" y="107" width="1" height="2" fill="#100F17" />
<rect x="52" y="107" width="8" height="1" fill="#28272D" />
<rect x="23" y="108" width="1" height="20" fill="#084258" />
<rect x="25" y="108" width="1" height="2" fill="#100F17" />
<rect x="50" y="108" width="1" height="7" fill="#28272D" />
<rect x="52" y="108" width="1" height="2" fill="#100F17" />
<rect x="53" y="108" width="7" height="1" fill="#28272D" />
<rect x="24" y="109" width="1" height="19" fill="#084258" />
<rect x="26" y="109" width="1" height="2" fill="#100F17" />
<rect x="27" y="109" width="1" height="1" fill="#28272D" />
<rect x="51" y="109" width="1" height="6" fill="#28272D" />
<rect x="53" y="109" width="2" height="1" fill="#100F17" />
<rect x="55" y="109" width="5" height="1" fill="#28272D" />
<rect x="25" y="110" width="1" height="18" fill="#084258" />
<rect x="27" y="110" width="1" height="2" fill="#100F17" />
<rect x="52" y="110" width="2" height="5" fill="#28272D" />
<rect x="54" y="110" width="2" height="1" fill="#100F17" />
<rect x="56" y="110" width="4" height="1" fill="#28272D" />
<rect x="26" y="111" width="1" height="17" fill="#084258" />
<rect x="28" y="111" width="2" height="1" fill="#100F17" />
<rect x="54" y="111" width="1" height="4" fill="#28272D" />
<rect x="55" y="111" width="5" height="1" fill="#100F17" />
<rect x="72" y="111" width="56" height="1" fill="#100F17" />
<rect x="27" y="112" width="2" height="16" fill="#084258" />
<rect x="29" y="112" width="3" height="1" fill="#100F17" />
<rect x="55" y="112" width="4" height="3" fill="#28272D" />
<rect x="59" y="112" width="3" height="1" fill="#100F17" />
<rect x="62" y="112" width="3" height="1" fill="#28272D" />
<rect x="71" y="112" width="57" height="3" fill="#28272D" />
<rect x="29" y="113" width="2" height="15" fill="#084258" />
<rect x="31" y="113" width="4" height="1" fill="#100F17" />
<rect x="59" y="113" width="2" height="2" fill="#28272D" />
<rect x="61" y="113" width="3" height="1" fill="#100F17" />
<rect x="64" y="113" width="1" height="1" fill="#28272D" />
<rect x="31" y="114" width="3" height="14" fill="#084258" />
<rect x="34" y="114" width="3" height="1" fill="#100F17" />
<rect x="61" y="114" width="2" height="1" fill="#28272D" />
<rect x="63" y="114" width="2" height="2" fill="#100F17" />
<rect x="34" y="115" width="2" height="13" fill="#084258" />
<rect x="36" y="115" width="27" height="1" fill="#100F17" />
<rect x="65" y="115" width="63" height="1" fill="#100F17" />
<rect x="36" y="116" width="92" height="12" fill="#084258" />
</svg>